ffmpeg started on 2025-06-06 at 19:40:57
Report written to "D:\Convert\FFMetrics\reports\ssim_report-6.txt"
Log level: 32
Command line:
ffmpeg -hide_banner -nostdin -i "G:\\\xc0\xed\xe8\xec\xe5\\\xce\xed\xe3\xee\xe8\xed\xe3\xe8\\!_36_\xce\xf1\xe5\xed\xfc_2024\\DreamCast\\\xd0\xee\xed \xca\xe0\xec\xee\xed\xee\xf5\xe0\xf1\xe8 - \xcd\xe5\xe2\xec\xe5\xed\xff\xe5\xec\xfb\xe9 \xe4\xe5\xf2\xe5\xea\xf2\xe8\xe2\\\xd2\xc2-2\\DC_Kamonohashi_Ron_no_Kindan_Suiri_2nd_Season_02_Telegram_HEVC.mkv" -i "G:\\\xc0\xed\xe8\xec\xe5\\\xce\xed\xe3\xee\xe8\xed\xe3\xe8\\!_36_\xce\xf1\xe5\xed\xfc_2024\\DreamCast\\\xd0\xee\xed \xca\xe0\xec\xee\xed\xee\xf5\xe0\xf1\xe8 - \xcd\xe5\xe2\xec\xe5\xed\xff\xe5\xec\xfb\xe9 \xe4\xe5\xf2\xe5\xea\xf2\xe8\xe2\\\xd2\xc2-2\\DC_Kamonohashi_Ron_no_Kindan_Suiri_2nd_Season_02_Telegram.mp4" -lavfi "[0:v]settb=AVTB,setpts=PTS-STARTPTS,format=pix_fmts=yuv420p10,fps=24000/1001,scale=1920:1080:flags=bicubic[main];[1:v]settb=AVTB,setpts=PTS-STARTPTS,format=pix_fmts=yuv420p,fps=24000/1001,scale=1920:1080:flags=bicubic[ref];[main][ref]ssim=eof_action=endall:stats_file='D\\:/Convert/FFMetrics/logs/ssim_logfile-6.txt'" -f null -
Input #0, matroska,webm, from 'G:\Аниме\Онгоинги\!_36_Осень_2024\DreamCast\Рон Камонохаси - Невменяемый детектив\ТВ-2\DC_Kamonohashi_Ron_no_Kindan_Suiri_2nd_Season_02_Telegram_HEVC.mkv':
  Metadata:
    COMPATIBLE_BRANDS: isomiso2avc1mp41
    MAJOR_BRAND     : isom
    MINOR_VERSION   : 512
    ENCODER         : Lavf61.7.100
  Duration: 00:23:46.65, start: -0.021000, bitrate: 748 kb/s
  Stream #0:0: Video: hevc (Main 10), yuv420p10le(tv, bt709, progressive), 1920x1080 [SAR 1:1 DAR 16:9], 23.98 fps, 23.98 tbr, 1k tbn (default)
      Metadata:
        HANDLER_NAME    : VideoHandler
        VENDOR_ID       : [0][0][0][0]
        ENCODER         : Lavc61.19.100 libx265
        BPS             : 551166
        DURATION        : 00:23:46.549708333
        NUMBER_OF_FRAMES: 34203
        NUMBER_OF_BYTES : 98283253
        _STATISTICS_WRITING_APP: mkvpropedit v66.0.0 ('Josie') 64-bit
        _STATISTICS_WRITING_DATE_UTC: 2025-06-04 07:02:59
        _STATISTICS_TAGS: BPS DURATION NUMBER_OF_FRAMES NUMBER_OF_BYTES
  Stream #0:1: Audio: aac (LC), 48000 Hz, stereo, fltp (default)
      Metadata:
        HANDLER_NAME    : SoundHandler
        VENDOR_ID       : [0][0][0][0]
        ENCODER         : Lavc61.19.100 aac
        BPS             : 193517
        DURATION        : 00:23:46.645000000
        NUMBER_OF_FRAMES: 66875
        NUMBER_OF_BYTES : 34510145
        _STATISTICS_WRITING_APP: mkvpropedit v66.0.0 ('Josie') 64-bit
        _STATISTICS_WRITING_DATE_UTC: 2025-06-04 07:02:59
        _STATISTICS_TAGS: BPS DURATION NUMBER_OF_FRAMES NUMBER_OF_BYTES
Input #1, mov,mp4,m4a,3gp,3g2,mj2, from 'G:\Аниме\Онгоинги\!_36_Осень_2024\DreamCast\Рон Камонохаси - Невменяемый детектив\ТВ-2\DC_Kamonohashi_Ron_no_Kindan_Suiri_2nd_Season_02_Telegram.mp4':
  Metadata:
    major_brand     : isom
    minor_version   : 512
    compatible_brands: isomiso2avc1mp41
    encoder         : Lavf61.1.100
  Duration: 00:23:46.62, start: 0.000000, bitrate: 3176 kb/s
  Stream #1:0[0x1](und): Video: h264 (High) (avc1 / 0x31637661), yuv420p(tv, bt709, progressive), 1920x1080 [SAR 1:1 DAR 16:9], 3028 kb/s, 23.98 fps, 23.98 tbr, 24k tbn (default)
      Metadata:
        handler_name    : VideoHandler
        vendor_id       : [0][0][0][0]
        encoder         : Lavc61.3.100 h264_qsv
  Stream #1:1[0x2](und): Audio: aac (HE-AACv2) (mp4a / 0x6134706D), 48000 Hz, stereo, fltp, 144 kb/s (default)
      Metadata:
        handler_name    : SoundHandler
        vendor_id       : [0][0][0][0]
Stream mapping:
  Stream #0:0 (hevc) -> settb:default
  Stream #1:0 (h264) -> settb:default
  ssim:default -> Stream #0:0 (wrapped_avframe)
  Stream #0:1 -> #0:1 (aac (native) -> pcm_s16le (native))
Output #0, null, to 'pipe:':
  Metadata:
    COMPATIBLE_BRANDS: isomiso2avc1mp41
    MAJOR_BRAND     : isom
    MINOR_VERSION   : 512
    encoder         : Lavf61.7.100
  Stream #0:0: Video: wrapped_avframe, yuv420p10le(tv, bt709, progressive), 1920x1080 [SAR 1:1 DAR 16:9], q=2-31, 200 kb/s, 23.98 fps, 23.98 tbn
      Metadata:
        encoder         : Lavc61.19.100 wrapped_avframe
  Stream #0:1: Audio: pcm_s16le, 48000 Hz, stereo, s16, 1536 kb/s (default)
      Metadata:
        HANDLER_NAME    : SoundHandler
        VENDOR_ID       : [0][0][0][0]
        _STATISTICS_TAGS: BPS DURATION NUMBER_OF_FRAMES NUMBER_OF_BYTES
        BPS             : 193517
        DURATION        : 00:23:46.645000000
        NUMBER_OF_FRAMES: 66875
        NUMBER_OF_BYTES : 34510145
        _STATISTICS_WRITING_APP: mkvpropedit v66.0.0 ('Josie') 64-bit
        _STATISTICS_WRITING_DATE_UTC: 2025-06-04 07:02:59
        encoder         : Lavc61.19.100 pcm_s16le
frame=  167 fps=0.0 q=-0.0 size=N/A time=00:00:06.96 bitrate=N/A speed=13.5x    frame=  399 fps=383 q=-0.0 size=N/A time=00:00:16.64 bitrate=N/A speed=  16x    frame=  671 fps=432 q=-0.0 size=N/A time=00:00:27.98 bitrate=N/A speed=  18x    frame=  896 fps=434 q=-0.0 size=N/A time=00:00:37.37 bitrate=N/A speed=18.1x    frame= 1130 fps=438 q=-0.0 size=N/A time=00:00:47.13 bitrate=N/A speed=18.3x    frame= 1394 fps=450 q=-0.0 size=N/A time=00:00:58.14 bitrate=N/A speed=18.8x    frame= 1670 fps=463 q=-0.0 size=N/A time=00:01:09.65 bitrate=N/A speed=19.3x    frame= 1886 fps=456 q=-0.0 size=N/A time=00:01:18.66 bitrate=N/A speed=  19x    frame= 2120 fps=456 q=-0.0 size=N/A time=00:01:28.42 bitrate=N/A speed=  19x    frame= 2360 fps=458 q=-0.0 size=N/A time=00:01:38.43 bitrate=N/A speed=19.1x    frame= 2600 fps=458 q=-0.0 size=N/A time=00:01:48.44 bitrate=N/A speed=19.1x    frame= 2865 fps=463 q=-0.0 size=N/A time=00:01:59.49 bitrate=N/A speed=19.3x    frame= 3072 fps=458 q=-0.0 size=N/A time=00:02:08.12 bitrate=N/A speed=19.1x    frame= 3275 fps=453 q=-0.0 size=N/A time=00:02:16.59 bitrate=N/A speed=18.9x    frame= 3463 fps=448 q=-0.0 size=N/A time=00:02:24.43 bitrate=N/A speed=18.7x    frame= 3695 fps=447 q=-0.0 size=N/A time=00:02:34.11 bitrate=N/A speed=18.7x    frame= 3937 fps=449 q=-0.0 size=N/A time=00:02:44.20 bitrate=N/A speed=18.7x    frame= 4151 fps=447 q=-0.0 size=N/A time=00:02:53.13 bitrate=N/A speed=18.6x    frame= 4383 fps=447 q=-0.0 size=N/A time=00:03:02.80 bitrate=N/A speed=18.7x    frame= 4636 fps=450 q=-0.0 size=N/A time=00:03:13.35 bitrate=N/A speed=18.8x    frame= 4893 fps=452 q=-0.0 size=N/A time=00:03:24.07 bitrate=N/A speed=18.8x    frame= 5157 fps=455 q=-0.0 size=N/A time=00:03:35.08 bitrate=N/A speed=  19x    frame= 5450 fps=459 q=-0.0 size=N/A time=00:03:47.31 bitrate=N/A speed=19.2x    frame= 5732 fps=463 q=-0.0 size=N/A time=00:03:59.07 bitrate=N/A speed=19.3x    frame= 5993 fps=465 q=-0.0 size=N/A time=00:04:09.95 bitrate=N/A speed=19.4x    frame= 6265 fps=467 q=-0.0 size=N/A time=00:04:21.30 bitrate=N/A speed=19.5x    frame= 6527 fps=469 q=-0.0 size=N/A time=00:04:32.23 bitrate=N/A speed=19.6x    frame= 6799 fps=471 q=-0.0 size=N/A time=00:04:43.57 bitrate=N/A speed=19.6x    frame= 7081 fps=473 q=-0.0 size=N/A time=00:04:55.33 bitrate=N/A speed=19.7x    frame= 7359 fps=475 q=-0.0 size=N/A time=00:05:06.93 bitrate=N/A speed=19.8x    frame= 7635 fps=478 q=-0.0 size=N/A time=00:05:18.44 bitrate=N/A speed=19.9x    frame= 7899 fps=478 q=-0.0 size=N/A time=00:05:29.45 bitrate=N/A speed=  20x    frame= 8162 fps=479 q=-0.0 size=N/A time=00:05:40.42 bitrate=N/A speed=  20x    frame= 8432 fps=481 q=-0.0 size=N/A time=00:05:51.68 bitrate=N/A speed=20.1x    frame= 8709 fps=482 q=-0.0 size=N/A time=00:06:03.23 bitrate=N/A speed=20.1x    frame= 8980 fps=484 q=-0.0 size=N/A time=00:06:14.54 bitrate=N/A speed=20.2x    frame= 9243 fps=484 q=-0.0 size=N/A time=00:06:25.51 bitrate=N/A speed=20.2x    frame= 9501 fps=485 q=-0.0 size=N/A time=00:06:36.27 bitrate=N/A speed=20.2x    frame= 9762 fps=486 q=-0.0 size=N/A time=00:06:47.15 bitrate=N/A speed=20.3x    frame=10040 fps=487 q=-0.0 size=N/A time=00:06:58.75 bitrate=N/A speed=20.3x    frame=10303 fps=487 q=-0.0 size=N/A time=00:07:09.72 bitrate=N/A speed=20.3x    frame=10582 fps=489 q=-0.0 size=N/A time=00:07:21.35 bitrate=N/A speed=20.4x    frame=10809 fps=487 q=-0.0 size=N/A time=00:07:30.82 bitrate=N/A speed=20.3x    frame=11035 fps=486 q=-0.0 size=N/A time=00:07:40.25 bitrate=N/A speed=20.3x    frame=11276 fps=486 q=-0.0 size=N/A time=00:07:50.30 bitrate=N/A speed=20.3x    frame=11530 fps=486 q=-0.0 size=N/A time=00:08:00.89 bitrate=N/A speed=20.3x    frame=11804 fps=487 q=-0.0 size=N/A time=00:08:12.32 bitrate=N/A speed=20.3x    frame=12090 fps=488 q=-0.0 size=N/A time=00:08:24.25 bitrate=N/A speed=20.4x    frame=12363 fps=489 q=-0.0 size=N/A time=00:08:35.64 bitrate=N/A speed=20.4x    frame=12636 fps=490 q=-0.0 size=N/A time=00:08:47.02 bitrate=N/A speed=20.4x    frame=12923 fps=491 q=-0.0 size=N/A time=00:08:58.99 bitrate=N/A speed=20.5x    frame=13185 fps=492 q=-0.0 size=N/A time=00:09:09.92 bitrate=N/A speed=20.5x    frame=13471 fps=493 q=-0.0 size=N/A time=00:09:21.85 bitrate=N/A speed=20.6x    frame=13737 fps=493 q=-0.0 size=N/A time=00:09:32.94 bitrate=N/A speed=20.6x    frame=14025 fps=494 q=-0.0 size=N/A time=00:09:44.95 bitrate=N/A speed=20.6x    frame=14318 fps=496 q=-0.0 size=N/A time=00:09:57.17 bitrate=N/A speed=20.7x    frame=14598 fps=496 q=-0.0 size=N/A time=00:10:08.85 bitrate=N/A speed=20.7x    frame=14867 fps=497 q=-0.0 size=N/A time=00:10:20.07 bitrate=N/A speed=20.7x    frame=15111 fps=496 q=-0.0 size=N/A time=00:10:30.25 bitrate=N/A speed=20.7x    frame=15362 fps=496 q=-0.0 size=N/A time=00:10:40.72 bitrate=N/A speed=20.7x    frame=15624 fps=497 q=-0.0 size=N/A time=00:10:51.65 bitrate=N/A speed=20.7x    frame=15910 fps=497 q=-0.0 size=N/A time=00:11:03.57 bitrate=N/A speed=20.7x    frame=16180 fps=498 q=-0.0 size=N/A time=00:11:14.84 bitrate=N/A speed=20.8x    frame=16453 fps=498 q=-0.0 size=N/A time=00:11:26.22 bitrate=N/A speed=20.8x    frame=16707 fps=498 q=-0.0 size=N/A time=00:11:36.82 bitrate=N/A speed=20.8x    frame=16934 fps=497 q=-0.0 size=N/A time=00:11:46.28 bitrate=N/A speed=20.7x    frame=17157 fps=496 q=-0.0 size=N/A time=00:11:55.58 bitrate=N/A speed=20.7x    frame=17379 fps=495 q=-0.0 size=N/A time=00:12:04.84 bitrate=N/A speed=20.7x    frame=17618 fps=495 q=-0.0 size=N/A time=00:12:14.81 bitrate=N/A speed=20.6x    frame=17896 fps=496 q=-0.0 size=N/A time=00:12:26.41 bitrate=N/A speed=20.7x    frame=18174 fps=496 q=-0.0 size=N/A time=00:12:38.00 bitrate=N/A speed=20.7x    frame=18454 fps=497 q=-0.0 size=N/A time=00:12:49.68 bitrate=N/A speed=20.7x    frame=18696 fps=496 q=-0.0 size=N/A time=00:12:59.77 bitrate=N/A speed=20.7x    frame=18952 fps=496 q=-0.0 size=N/A time=00:13:10.45 bitrate=N/A speed=20.7x    frame=19203 fps=496 q=-0.0 size=N/A time=00:13:20.92 bitrate=N/A speed=20.7x    frame=19479 fps=497 q=-0.0 size=N/A time=00:13:32.43 bitrate=N/A speed=20.7x    frame=19741 fps=497 q=-0.0 size=N/A time=00:13:43.36 bitrate=N/A speed=20.7x    frame=20007 fps=497 q=-0.0 size=N/A time=00:13:54.45 bitrate=N/A speed=20.7x    frame=20278 fps=498 q=-0.0 size=N/A time=00:14:05.76 bitrate=N/A speed=20.8x    frame=20556 fps=498 q=-0.0 size=N/A time=00:14:17.35 bitrate=N/A speed=20.8x    frame=20843 fps=499 q=-0.0 size=N/A time=00:14:29.32 bitrate=N/A speed=20.8x    frame=21123 fps=499 q=-0.0 size=N/A time=00:14:41.00 bitrate=N/A speed=20.8x    frame=21387 fps=500 q=-0.0 size=N/A time=00:14:52.01 bitrate=N/A speed=20.8x    frame=21637 fps=499 q=-0.0 size=N/A time=00:15:02.44 bitrate=N/A speed=20.8x    frame=21904 fps=500 q=-0.0 size=N/A time=00:15:13.57 bitrate=N/A speed=20.8x    frame=22157 fps=499 q=-0.0 size=N/A time=00:15:24.13 bitrate=N/A speed=20.8x    frame=22425 fps=500 q=-0.0 size=N/A time=00:15:35.30 bitrate=N/A speed=20.8x    frame=22699 fps=500 q=-0.0 size=N/A time=00:15:46.73 bitrate=N/A speed=20.9x    frame=22968 fps=500 q=-0.0 size=N/A time=00:15:57.95 bitrate=N/A speed=20.9x    frame=23233 fps=500 q=-0.0 size=N/A time=00:16:09.00 bitrate=N/A speed=20.9x    frame=23497 fps=501 q=-0.0 size=N/A time=00:16:20.02 bitrate=N/A speed=20.9x    frame=23745 fps=500 q=-0.0 size=N/A time=00:16:30.36 bitrate=N/A speed=20.9x    frame=24018 fps=501 q=-0.0 size=N/A time=00:16:41.75 bitrate=N/A speed=20.9x    frame=24276 fps=501 q=-0.0 size=N/A time=00:16:52.51 bitrate=N/A speed=20.9x    frame=24540 fps=501 q=-0.0 size=N/A time=00:17:03.52 bitrate=N/A speed=20.9x    frame=24814 fps=501 q=-0.0 size=N/A time=00:17:14.95 bitrate=N/A speed=20.9x    frame=25086 fps=501 q=-0.0 size=N/A time=00:17:26.33 bitrate=N/A speed=20.9x    frame=25281 fps=500 q=-0.0 size=N/A time=00:17:34.42 bitrate=N/A speed=20.9x    frame=25517 fps=500 q=-0.0 size=N/A time=00:17:44.27 bitrate=N/A speed=20.8x    frame=25756 fps=499 q=-0.0 size=N/A time=00:17:54.23 bitrate=N/A speed=20.8x    frame=26038 fps=500 q=-0.0 size=N/A time=00:18:06.00 bitrate=N/A speed=20.8x    frame=26305 fps=500 q=-0.0 size=N/A time=00:18:17.13 bitrate=N/A speed=20.9x    frame=26566 fps=500 q=-0.0 size=N/A time=00:18:28.02 bitrate=N/A speed=20.9x    frame=26847 fps=500 q=-0.0 size=N/A time=00:18:39.74 bitrate=N/A speed=20.9x    frame=27125 fps=501 q=-0.0 size=N/A time=00:18:51.33 bitrate=N/A speed=20.9x    frame=27396 fps=501 q=-0.0 size=N/A time=00:19:02.64 bitrate=N/A speed=20.9x    frame=27646 fps=501 q=-0.0 size=N/A time=00:19:13.06 bitrate=N/A speed=20.9x    frame=27922 fps=501 q=-0.0 size=N/A time=00:19:24.58 bitrate=N/A speed=20.9x    frame=28205 fps=502 q=-0.0 size=N/A time=00:19:36.38 bitrate=N/A speed=20.9x    frame=28494 fps=502 q=-0.0 size=N/A time=00:19:48.43 bitrate=N/A speed=20.9x    frame=28764 fps=502 q=-0.0 size=N/A time=00:19:59.69 bitrate=N/A speed=  21x    frame=29009 fps=502 q=-0.0 size=N/A time=00:20:09.91 bitrate=N/A speed=20.9x    frame=29223 fps=501 q=-0.0 size=N/A time=00:20:18.84 bitrate=N/A speed=20.9x    frame=29457 fps=501 q=-0.0 size=N/A time=00:20:28.60 bitrate=N/A speed=20.9x    frame=29743 fps=501 q=-0.0 size=N/A time=00:20:40.53 bitrate=N/A speed=20.9x    frame=30000 fps=501 q=-0.0 size=N/A time=00:20:51.25 bitrate=N/A speed=20.9x    frame=30280 fps=502 q=-0.0 size=N/A time=00:21:02.92 bitrate=N/A speed=20.9x    frame=30569 fps=502 q=-0.0 size=N/A time=00:21:14.98 bitrate=N/A speed=20.9x    frame=30854 fps=503 q=-0.0 size=N/A time=00:21:26.86 bitrate=N/A speed=  21x    frame=31159 fps=503 q=-0.0 size=N/A time=00:21:39.58 bitrate=N/A speed=  21x    frame=31412 fps=503 q=-0.0 size=N/A time=00:21:50.14 bitrate=N/A speed=  21x    frame=31679 fps=503 q=-0.0 size=N/A time=00:22:01.27 bitrate=N/A speed=  21x    frame=31925 fps=503 q=-0.0 size=N/A time=00:22:11.53 bitrate=N/A speed=  21x    frame=32204 fps=504 q=-0.0 size=N/A time=00:22:23.17 bitrate=N/A speed=  21x    frame=32455 fps=503 q=-0.0 size=N/A time=00:22:33.64 bitrate=N/A speed=  21x    frame=32696 fps=503 q=-0.0 size=N/A time=00:22:43.69 bitrate=N/A speed=  21x    frame=32956 fps=503 q=-0.0 size=N/A time=00:22:54.53 bitrate=N/A speed=  21x    frame=33183 fps=503 q=-0.0 size=N/A time=00:23:04.00 bitrate=N/A speed=  21x    frame=33401 fps=502 q=-0.0 size=N/A time=00:23:13.10 bitrate=N/A speed=20.9x    frame=33647 fps=502 q=-0.0 size=N/A time=00:23:23.36 bitrate=N/A speed=20.9x    frame=33911 fps=502 q=-0.0 size=N/A time=00:23:34.37 bitrate=N/A speed=20.9x    frame=34120 fps=501 q=-0.0 size=N/A time=00:23:43.08 bitrate=N/A speed=20.9x    [Parsed_ssim_10 @ 0000023d8b138280] SSIM Y:0.995951 (23.926571) U:0.993496 (21.868126) V:0.994677 (22.738755) All:0.995330 (23.306439)
[out#0/null @ 0000023d892d5a00] video:14697KiB audio:267500KiB subtitle:0KiB other streams:0KiB global headers:0KiB muxing overhead: unknown
frame=34203 fps=501 q=-0.0 Lsize=N/A time=00:23:46.55 bitrate=N/A speed=20.9x    
